<svg width="20" height="20" viewBox="0 0 20 20" fill="none" xmlns="http://www.w3.org/2000/svg">
<rect x="1" y="1" width="18" height="18" fill="#F9F6F3" stroke="#000101" stroke-width="2"/>
<path d="M15.8421 5.43912C15.8848 5.48067 15.9188 5.5304 15.942 5.58537C15.9652 5.64033 15.9772 5.69941 15.9772 5.7591C15.9772 5.81878 15.9652 5.87786 15.942 5.93283C15.9188 5.98779 15.8848 6.03752 15.8421 6.07907L12.2858 9.71307C12.2431 9.75462 12.2091 9.80435 12.1859 9.85932C12.1627 9.91428 12.1507 9.97336 12.1507 10.033C12.1507 10.0927 12.1627 10.1518 12.1859 10.2068C12.2091 10.2617 12.2431 10.3115 12.2858 10.353L15.8649 13.9413C15.9076 13.9829 15.9416 14.0326 15.9648 14.0876C15.988 14.1425 16 14.2016 16 14.2613C16 14.321 15.988 14.3801 15.9648 14.435C15.9416 14.49 15.9076 14.5397 15.8649 14.5813L14.5655 15.8726C14.477 15.9545 14.3611 16 14.2406 16C14.1202 16 14.0042 15.9545 13.9158 15.8726L10.3139 12.2957C10.2715 12.2525 10.2209 12.2182 10.1652 12.1948C10.1094 12.1714 10.0495 12.1594 9.98906 12.1594C9.9286 12.1594 9.86874 12.1714 9.81297 12.1948C9.7572 12.2182 9.70663 12.2525 9.66421 12.2957L6.08513 15.8612C5.99669 15.9431 5.88069 15.9886 5.76028 15.9886C5.63987 15.9886 5.52388 15.9431 5.43543 15.8612L4.13602 14.5813C4.09294 14.5387 4.05873 14.488 4.03538 14.4321C4.01203 14.3762 4 14.3162 4 14.2556C4 14.195 4.01203 14.1349 4.03538 14.079C4.05873 14.0231 4.09294 13.9724 4.13602 13.9299L7.72649 10.3302C7.76957 10.2876 7.80378 10.2369 7.82713 10.181C7.85049 10.1251 7.86251 10.0651 7.86251 10.0045C7.86251 9.94386 7.85049 9.88385 7.82713 9.82793C7.80378 9.77202 7.76957 9.72132 7.72649 9.67879L4.13602 6.0905C4.09294 6.04797 4.05873 5.99727 4.03538 5.94135C4.01203 5.88544 4 5.82543 4 5.76481C4 5.70419 4.01203 5.64418 4.03538 5.58827C4.05873 5.53235 4.09294 5.48166 4.13602 5.43912L5.44683 4.13637C5.48925 4.09318 5.53982 4.05888 5.59559 4.03547C5.65136 4.01206 5.71122 4 5.77168 4C5.83214 4 5.892 4.01206 5.94777 4.03547C6.00354 4.05888 6.05411 4.09318 6.09653 4.13637L9.6984 7.72466C9.78685 7.80658 9.90284 7.85207 10.0233 7.85207C10.1437 7.85207 10.2597 7.80658 10.3481 7.72466L13.893 4.1478C13.9354 4.10461 13.986 4.07031 14.0418 4.0469C14.0975 4.02348 14.1574 4.01143 14.2178 4.01143C14.2783 4.01143 14.3382 4.02348 14.3939 4.0469C14.4497 4.07031 14.5003 4.10461 14.5427 4.1478L15.8421 5.43912Z" fill="black"/>
</svg>
