<svg width="19" height="19" viewBox="0 0 19 19" fill="none" xmlns="http://www.w3.org/2000/svg">
<path d="M18.75 2.27861C18.8177 2.34439 18.8715 2.42314 18.9082 2.51016C18.945 2.59719 18.9639 2.69073 18.9639 2.78524C18.9639 2.87974 18.945 2.97328 18.9082 3.06031C18.8715 3.14734 18.8177 3.22608 18.75 3.29186L13.1192 9.0457C13.0516 9.11148 12.9977 9.19022 12.961 9.27725C12.9243 9.36428 12.9053 9.45782 12.9053 9.55232C12.9053 9.64683 12.9243 9.74037 12.961 9.8274C12.9977 9.91442 13.0516 9.99317 13.1192 10.0589L18.7861 15.7404C18.8538 15.8062 18.9076 15.8849 18.9443 15.972C18.9811 16.059 19 16.1525 19 16.247C19 16.3415 18.9811 16.4351 18.9443 16.5221C18.9076 16.6091 18.8538 16.6879 18.7861 16.7537L16.7287 18.7983C16.5887 18.928 16.405 19 16.2143 19C16.0237 19 15.84 18.928 15.7 18.7983L9.99703 13.1349C9.92986 13.0665 9.84979 13.0122 9.76149 12.9751C9.67319 12.9381 9.57841 12.919 9.48268 12.919C9.38695 12.919 9.29218 12.9381 9.20387 12.9751C9.11557 13.0122 9.0355 13.0665 8.96833 13.1349L3.30146 18.7802C3.16142 18.9099 2.97776 18.9819 2.78711 18.9819C2.59646 18.9819 2.4128 18.9099 2.27276 18.7802L0.215361 16.7537C0.147153 16.6863 0.0929863 16.606 0.0560134 16.5175C0.0190405 16.429 0 16.334 0 16.238C0 16.142 0.0190405 16.047 0.0560134 15.9585C0.0929863 15.8699 0.147153 15.7897 0.215361 15.7223L5.90028 10.0228C5.96849 9.95542 6.02266 9.87514 6.05963 9.78661C6.0966 9.69808 6.11564 9.60307 6.11564 9.50709C6.11564 9.41111 6.0966 9.31609 6.05963 9.22756C6.02266 9.13903 5.96849 9.05876 5.90028 8.99141L0.215361 3.30996C0.147153 3.24261 0.0929863 3.16234 0.0560134 3.07381C0.0190405 2.98528 0 2.89026 0 2.79428C0 2.69831 0.0190405 2.60329 0.0560134 2.51476C0.0929863 2.42623 0.147153 2.34595 0.215361 2.27861L2.29081 0.215916C2.35798 0.147532 2.43805 0.0932256 2.52635 0.0561576C2.61465 0.0190895 2.70943 0 2.80516 0C2.90089 0 2.99566 0.0190895 3.08397 0.0561576C3.17227 0.0932256 3.25234 0.147532 3.31951 0.215916L9.02247 5.89737C9.16252 6.02708 9.34617 6.09911 9.53682 6.09911C9.72748 6.09911 9.91113 6.02708 10.0512 5.89737L15.6639 0.234009C15.7311 0.165626 15.8111 0.111319 15.8994 0.0742514C15.9877 0.0371834 16.0825 0.0180938 16.1783 0.0180938C16.274 0.0180938 16.3688 0.0371834 16.4571 0.0742514C16.5454 0.111319 16.6254 0.165626 16.6926 0.234009L18.75 2.27861Z" fill="#D0D0D0"/>
</svg>
